<svg id="visual" viewBox="0 0 900 600" width="900" height="600" xmlns="http://www.w3.org/2000/svg" xmlns:xlink="http://www.w3.org/1999/xlink" version="1.1"><rect x="0" y="0" width="900" height="600" fill="#FFFFFF"></rect><path d="M217 600L196 575C175 550 133 500 227.7 450C322.3 400 553.7 350 633.2 300C712.7 250 640.3 200 651.3 150C662.3 100 756.7 50 803.8 25L851 0L900 0L900 25C900 50 900 100 900 150C900 200 900 250 900 300C900 350 900 400 900 450C900 500 900 550 900 575L900 600Z" fill="#1E015D" stroke-linecap="round" stroke-linejoin="miter"></path></svg>